<?xml version="1.0" encoding="UTF-8"?><svg id="_1-AlphaFull" xmlns="http://www.w3.org/2000/svg" viewBox="0 0 900.585231781 436.5991958841"><defs><style>.cls-1{fill:none;}</style></defs><line class="cls-1" x1="656.1525486964" y1=".1287521851" x2="691.4289158839" y2="54.7381271851"/><polygon points="537.6637840271 .0745834839 515.943813324 82.5545639527 513.513759613 73.7545761597 493.193813324 .0745834839 537.6637840271 .0745834839"/><polygon points="496.513759613 155.34454198 451.1838035583 155.34454198 466.3637962341 93.524595691 472.7037620544 67.6845688355 473.1238059998 65.9845566285 479.6437644958 93.2245468628 496.513759613 155.34454198"/><polygon points="556.1037864685 44.3245834839 556.1037864685 155.3545517457 527.0937767029 155.3545517457 556.1037864685 44.3245834839"/><polygon points="593.8037986755 155.3645615113 593.8037986755 .0345444214 604.5837669373 .0345444214 604.5837669373 75.4945663941 615.5837669373 45.7945541871 628.2737693787 90.84454198 604.4537620544 90.84454198 604.5837669373 124.7545761597 636.7337913513 124.7545761597 645.5937767029 155.3545517457 593.8037986755 155.3645615113"/><path d="m645.5337791443.024595691h6.6699829102l43.0200195312,110.3799438477v-30.25c0-6.9799804688-1.2700195312-15.4699707031-3.7899780273-25.4899902344,5.5999755859,12.5900268555,11.1599731445,23.2700195312,16.6699829102,32.0700073242l42.9600219727,68.6199951172v.0300292969l-56.3300170898-.0100097656v-.0200195312L645.5337791443.0545639527"/><path d="m751.0638084412.0545639527v45.9700317383c0,13.8799438477,1.2299804688,27.4499511719,3.6799926758,40.7299804688-3.75-8.5800170898-9.2700195312-18.5100097656-16.5400390625-29.8099975586L701.7037620544.024595691l49.3600463867.0299682617Z"/><polygon points="790.2538108826 155.3545517457 790.2538108826 .0145859253 862.2037620544 .0045761597 862.2037620544 155.4045395386 790.2538108826 155.3545517457"/><g><polygon points="259.637922547 155.3649582398 259.637922547 .0749802125 297.337934754 .0749802125 297.337934754 111.1149582398 326.3479445196 .0749802125 356.9179518438 .0749802125 373.7979567266 62.2149948609 380.3179152227 89.4549850953 380.7379591681 87.7549728882 387.0779249884 61.9149460328 402.2579176641 .0749802125 447.5579664923 .0749802125 423.1579420782 91.0049728882 405.887922547 155.3649582398 360.2479078985 155.3649582398 339.9279616095 81.684965564 337.4979078985 72.884977771 315.7779371954 155.3649582398 259.637922547 155.3649582398"/><path d="m119.7337913513,57.0145859253L83.193813324.1245712769h-45.5100097656v155.299987793h39.0700073242v-75.200012207c0-6.9799804688-1.2600097656-15.4699707031-3.7900390625-25.4899902344,5.6099853516,12.5900268555,11.1700439453,23.2700195312,16.6799926758,32.0700073242l42.9600219727,68.6199951172v-76.3300170898c-3.3900146484-6.6699829102-7.6799926758-14.0199584961-12.8699951172-22.0799560547Z"/><path d="m188.9137840271,23.7345566285l9.5999755859,12.2300415039h61.1800537109V.1245712769h-118.0100097656v155.299987793h118.0100097656v-37.0899658203h-61.1900024414l-9.5900268555,12.2199707031V23.7345566285Z"/></g><rect x="202.106092453" y="58.4945663941" width="45.1176891327" height="34.4700317383"/><line class="cls-1" x1="695.2237864685" y1="105.4745834839" x2="656.1537864685" y2="18.4645834839"/></svg>