<?xml version="1.0" encoding="UTF-8"?><svg id="_1-AlphaLeft" xmlns="http://www.w3.org/2000/svg" viewBox="0 0 900.59 436.6"><defs><style>.cls-1{fill:#fff;}.cls-2{fill:none;}</style></defs><line class="cls-2" x1="656.15" y1=".13" x2="691.43" y2="54.74"/><polygon points="447.86 .04 862.2 0 862.2 155.41 406.19 155.33 447.86 .04"/><g><path class="cls-1" d="m652.19,0l43.03,110.4v-30.25c0-6.98-1.27-15.47-3.79-25.49,5.6,12.59,11.16,23.27,16.67,32.07l42.96,68.62h39.19V.05h-39.19v45.97c0,13.88,1.23,27.45,3.68,40.73-3.75-8.58-9.27-18.51-16.54-29.81L701.69,0h-49.5Z"/><polygon class="cls-1" points="593.81 .07 593.81 155.36 556.11 155.36 556.11 44.32 527.1 155.36 496.53 155.36 479.65 93.22 473.13 65.98 472.71 67.68 466.37 93.52 451.19 155.36 405.89 155.36 430.29 64.43 447.56 .07 493.2 .07 513.52 73.75 515.95 82.55 537.67 .07 593.81 .07"/><polygon points="259.64 155.36 259.64 .07 297.34 .07 297.34 111.11 326.35 .07 356.92 .07 373.8 62.21 380.32 89.45 380.74 87.75 387.08 61.91 402.26 .07 447.56 .07 423.16 91 405.89 155.36 360.25 155.36 339.93 81.68 337.5 72.88 315.78 155.36 259.64 155.36"/><path d="m119.73,57.01L83.19.12h-45.51v155.3h39.07v-75.2c0-6.98-1.26-15.47-3.79-25.49,5.61,12.59,11.17,23.27,16.68,32.07l42.96,68.62v-76.33c-3.39-6.67-7.68-14.02-12.87-22.08Z"/><path d="m188.91,23.73l9.6,12.23h61.18V.12h-118.01v155.3h118.01v-37.09h-61.19l-9.59,12.22V23.73Z"/><path class="cls-1" d="m645.53.05h-40.95v75.44l11-29.7,12.69,45.05h-23.82l.13,33.91h32.15l8.86,30.6h49.14L645.53.05Z"/></g><rect x="202.11" y="58.49" width="45.12" height="34.47"/><line class="cls-2" x1="695.22" y1="105.47" x2="656.15" y2="18.46"/></svg>