<?xml version="1.0" encoding="UTF-8"?><svg id="_1" xmlns="http://www.w3.org/2000/svg" viewBox="0 0 900.585231781005859 436.599195884111396"><defs><style>.cls-1{fill:#fff;}.cls-2{fill:none;}</style></defs><line class="cls-2" x1="656.152548696432859" y1=".128752185111807" x2="691.428915883932859" y2="54.738127185111807"/><polygon class="cls-1" points="410.686240684237418 155.364958239799307 37.683803558349609 155.4091796875 37.683803558349609 0 448.199437047873289 .074980212455557 410.686240684237418 155.364958239799307"/><polygon points="447.864497522130478 .044221447700693 862.199437047875108 0 862.199437047875108 155.4091796875 406.194453576817978 155.334199475045352 447.864497522130478 .044221447700693"/><g><path class="cls-1" d="m652.190298550491207,0l43.033483035202153,110.404571533203125v-30.25c0-6.97998046875-1.27001953125-15.469970703125-3.78997802734375-25.489990234375,5.5999755859375,12.59002685546875,11.15997314453125,23.27001953125,16.66998291015625,32.07000732421875l42.96002197265625,68.6199951171875h39.190002441404431V.054595947265625h-39.190002441404431v45.969970703125c0,13.8800048828125,1.22998046875,27.45001220703125,3.67999267578125,40.73004150390625-3.75-8.58001708984375-9.27001953125-18.510009765625-16.5400390625-29.80999755859375L701.690298550491207,0h-49.5Z"/><polygon class="cls-1" points="593.807966492273408 .074980212455557 593.807966492273408 155.364958239799307 556.107954285242158 155.364958239799307 556.107954285242158 44.324980212455557 527.097944519617158 155.364958239799307 496.527937195398408 155.364958239799307 479.647932312585908 93.224943591361807 473.127973816492158 65.984953356986807 472.707929871179658 67.684965564018057 466.367964050867158 93.524992419486807 451.187971375085908 155.364958239799307 405.887922546960908 155.364958239799307 430.287946961023408 64.434965564018057 447.557966492273408 .074980212455557 493.197981140710908 .074980212455557 513.517927429773408 73.754972888236807 515.947981140710908 82.554960681205557 537.667951843835908 .074980212455557 593.807966492273408 .074980212455557"/><polygon points="259.637922546959999 155.364958239799307 259.637922546959999 .074980212455557 297.337934753992158 .074980212455557 297.337934753992158 111.114958239799307 326.347944519617158 .074980212455557 356.917951843835908 .074980212455557 373.797956726648408 62.214994860893057 380.317915222742158 89.454985095268057 380.737959168054658 87.754972888236807 387.077924988367158 61.914946032768057 402.257917664148408 .074980212455557 447.557966492273408 .074980212455557 423.157942078210908 91.004972888236807 405.887922546960908 155.364958239799307 360.247907898523408 155.364958239799307 339.927961609460908 81.684965564018057 337.497907898523408 72.884977771049307 315.777937195398408 155.364958239799307 259.637922546959999 155.364958239799307"/><path d="m119.733791351319269,57.014585925346182L83.193813323974609.124571276908682h-45.510009765625v155.299987792969659h39.070007324219659v-75.200012207032159c0-6.97998046875-1.260009765625-15.469970703125-3.7900390625-25.489990234375,5.609985351561591,12.59002685546875,11.170043945311591,23.27001953125,16.679992675780341,32.07000732421875l42.96002197265625,68.619995117188409v-76.330017089844659c-3.390014648436591-6.669982910155341-7.67999267578125-14.01995849609375-12.869995117186591-22.0799560546875Z"/><path d="m188.913784027099609,23.734556628471182l9.5999755859375,12.230041503907159h61.1800537109375V.124571276908682h-118.010009765625v155.299987792969659h118.010009765625v-37.089965820313409h-61.190002441405341l-9.590026855469659,12.219970703125V23.734556628471182Z"/><path class="cls-1" d="m645.529454137717039.054595947265625h-40.950009765625509v75.439970446830557l10.999997558594259-29.699980212455557,12.69000244140625,45.04998779296875h-23.82000732421875l.1300048828125,33.9100341796875h32.1500244140625l8.8599853515625,30.5999755859375h49.1400146484375L645.529454137717039.054595947265625Z"/></g><rect x="202.10609245300293" y="58.494566394096182" width="45.117689132691339" height="34.470031738282159"/><line class="cls-2" x1="695.22378646850666" y1="105.474583483941387" x2="656.153786468505132" y2="18.46458348394026"/></svg>